<svg xmlns="http://www.w3.org/2000/svg" xmlns:xlink="http://www.w3.org/1999/xlink" version="1.1" id="Your_Icon" x="0px" y="0px" width="60px" height="60px" viewBox="0 0 100 100" enable-background="new 0 0 100 100" xml:space="preserve">
<g>
	<path fill="#FFF" d="M83.537,51.543c-0.883-2.561-2.506-3.707-3.712-4.217c-0.302-0.128-0.605-0.222-0.909-0.302   C75.902,33.01,63.808,22.635,49.992,22.578c-13.799,0.059-25.897,10.435-28.907,24.446c-0.304,0.08-0.608,0.174-0.909,0.302   c-1.206,0.511-2.83,1.657-3.712,4.217c-0.356,1.029,0.191,2.151,1.223,2.508c0.213,0.075,0.431,0.11,0.644,0.11   c0.82,0,1.585-0.515,1.867-1.331c0.077-0.225,0.166-0.426,0.261-0.611c-0.096,6.096,2.11,12.153,6.289,17.011   c5.593,6.503,14.064,10.233,23.25,10.231c0,0,0.002,0,0.002,0h0.012c9.176,0,17.649-3.73,23.243-10.235   c4.178-4.855,6.383-10.912,6.288-17.006c0.095,0.187,0.183,0.387,0.26,0.61c0.283,0.816,1.048,1.331,1.868,1.331   c0.215,0,0.432-0.035,0.645-0.11C83.346,53.694,83.893,52.572,83.537,51.543z M49.992,26.529   c11.675,0.049,21.956,8.686,24.872,20.485c-0.13,0.028-0.255,0.057-0.377,0.088c-1.004-4.875-5.328-8.55-10.493-8.55   c-5.042,0-9.272,3.506-10.407,8.208c-1.023-0.22-2.284-0.411-3.585-0.411c-1.302,0-2.563,0.191-3.587,0.411   c-1.133-4.702-5.362-8.208-10.407-8.208c-5.166,0-9.489,3.676-10.493,8.551c-0.123-0.031-0.248-0.061-0.378-0.089   C28.052,35.217,38.332,26.578,49.992,26.529z M70.757,49.267c0,3.728-3.035,6.761-6.764,6.761c-3.729,0-6.763-3.033-6.763-6.761   c0-3.731,3.033-6.765,6.763-6.765C67.722,42.502,70.757,45.536,70.757,49.267z M42.771,49.267c0,3.728-3.034,6.761-6.765,6.761   c-3.729,0-6.762-3.033-6.762-6.761c0-3.731,3.033-6.765,6.762-6.765C39.738,42.502,42.771,45.536,42.771,49.267z M70.259,66.65   c-4.844,5.629-12.223,8.858-20.248,8.858H49.99h-0.001c-8.025,0-15.404-3.228-20.247-8.856c-3.917-4.554-5.76-10.096-5.272-15.738   c0.417,0.1,0.764,0.219,1.014,0.32c0.928,4.969,5.289,8.744,10.524,8.744c5.396,0,9.86-4.012,10.597-9.205   c0.876-0.225,2.127-0.476,3.397-0.476c1.273,0,2.521,0.25,3.395,0.475c0.737,5.194,5.203,9.206,10.598,9.206   c5.233,0,9.598-3.775,10.525-8.745c0.25-0.102,0.597-0.221,1.013-0.32C76.019,56.554,74.176,62.095,70.259,66.65z"/>
	<path fill="#FFF" d="M37.469,48.375l-2.988,2.988c-0.386,0.387-0.386,1.013,0,1.397c0.193,0.192,0.446,0.289,0.698,0.289   s0.506-0.097,0.698-0.289l2.988-2.987c0.386-0.387,0.386-1.012,0-1.398C38.479,47.99,37.855,47.99,37.469,48.375z"/>
	<path fill="#FFF" d="M33.693,50.23c0.194,0.194,0.446,0.289,0.7,0.289c0.252,0,0.506-0.095,0.697-0.289l2.989-2.987   c0.386-0.386,0.386-1.011,0-1.396c-0.386-0.386-1.011-0.386-1.397,0l-2.989,2.987C33.309,49.22,33.309,49.845,33.693,50.23z"/>
	<path fill="#FFF" d="M65.13,48.375l-2.987,2.988c-0.386,0.387-0.386,1.013,0,1.397c0.192,0.192,0.444,0.289,0.698,0.289   c0.251,0,0.506-0.097,0.697-0.289l2.988-2.987c0.385-0.387,0.385-1.012,0-1.398C66.141,47.99,65.516,47.99,65.13,48.375z"/>
	<path fill="#FFF" d="M61.355,50.23c0.191,0.194,0.446,0.289,0.699,0.289c0.252,0,0.505-0.095,0.698-0.289l2.987-2.987   c0.387-0.386,0.387-1.011,0-1.396c-0.385-0.386-1.012-0.386-1.396,0l-2.988,2.987C60.97,49.22,60.97,49.845,61.355,50.23z"/>
	<path fill="#FFF" d="M53.833,64.55c-0.012,0.006-1.263,0.537-3.832,0.537c-2.508,0-3.758-0.506-3.83-0.535   c-0.979-0.45-2.141-0.031-2.607,0.943c-0.468,0.984-0.051,2.165,0.932,2.634c0.195,0.092,2.003,0.908,5.505,0.908   c3.499,0,5.308-0.814,5.503-0.908c0.984-0.469,1.417-1.654,0.946-2.64C55.98,64.505,54.818,64.082,53.833,64.55z"/>
</g>
</svg>